<svg xmlns="http://www.w3.org/2000/svg" xmlns:xlink="http://www.w3.org/1999/xlink" width="1024" height="1024" viewBox="0 0 1024 1024">
  <defs>
    <clipPath id="clip-Logo">
      <rect width="1024" height="1024"/>
    </clipPath>
  </defs>
  <g id="Logo" clip-path="url(#clip-Logo)">
    <g id="Group_10" data-name="Group 10" transform="translate(-7 -165)">
      <ellipse id="Ellipse_12" data-name="Ellipse 12" cx="218.5" cy="57.5" rx="218.5" ry="57.5" transform="translate(90 853)" fill="#616161"/>
      <ellipse id="Ellipse_13" data-name="Ellipse 13" cx="137" cy="39" rx="137" ry="39" transform="translate(172 872)" fill="#ebebeb"/>
      <ellipse id="Ellipse_14" data-name="Ellipse 14" cx="92" cy="21.5" rx="92" ry="21.5" transform="translate(218 890)" fill="#b0b0b0"/>
    </g>
    <g id="Group_2" data-name="Group 2" transform="translate(-57 24)">
      <rect id="Rectangle_18" data-name="Rectangle 18" width="700" height="27" transform="translate(81 450)" fill="#ebebeb"/>
      <g id="Group_3" data-name="Group 3" transform="translate(582 480.881)">
        <rect id="Rectangle_19" data-name="Rectangle 19" width="188" height="203" transform="translate(0 0.119)" fill="#ebebeb"/>
        <rect id="Rectangle_21" data-name="Rectangle 21" width="168" height="44" transform="translate(11 17.119)" fill="#616161"/>
        <rect id="Rectangle_22" data-name="Rectangle 22" width="168" height="46" transform="translate(11 73.119)" fill="#616161"/>
        <rect id="Rectangle_23" data-name="Rectangle 23" width="168" height="45" transform="translate(11 131.119)" fill="#6b6b6b"/>
        <rect id="Rectangle_38" data-name="Rectangle 38" width="77" height="15" rx="7" transform="translate(58 8.119)" fill="#ebebeb"/>
        <rect id="Rectangle_39" data-name="Rectangle 39" width="77" height="15" rx="7" transform="translate(58 64.119)" fill="#ebebeb"/>
        <rect id="Rectangle_40" data-name="Rectangle 40" width="77" height="15" rx="7" transform="translate(58 124.119)" fill="#ebebeb"/>
      </g>
      <rect id="Rectangle_20" data-name="Rectangle 20" width="21" height="203" transform="translate(92 481)" fill="#ebebeb"/>
    </g>
    <g id="Group_1" data-name="Group 1" transform="translate(383 208.069)">
      <rect id="Rectangle_4" data-name="Rectangle 4" width="203.656" height="65.057" transform="translate(106.436 148.439)" fill="#1f1f1f"/>
      <g id="Rectangle_5" data-name="Rectangle 5" transform="translate(124.114 168.946)" stroke="#707070" stroke-width="1">
        <rect width="169.007" height="24.75" rx="12.375" stroke="none"/>
        <rect x="0.5" y="0.5" width="168.007" height="23.75" rx="11.875" fill="none"/>
      </g>
      <g id="Ellipse_1" data-name="Ellipse 1" transform="translate(130.478 172.482)" fill="#5c5c5c" stroke="#ebebeb" stroke-width="2">
        <circle cx="8.486" cy="8.486" r="8.486" stroke="none"/>
        <circle cx="8.486" cy="8.486" r="7.486" fill="none"/>
      </g>
      <g id="Ellipse_2" data-name="Ellipse 2" transform="translate(151.693 172.482)" fill="#5c5c5c" stroke="#ebebeb" stroke-width="2">
        <circle cx="8.486" cy="8.486" r="8.486" stroke="none"/>
        <circle cx="8.486" cy="8.486" r="7.486" fill="none"/>
      </g>
      <g id="Ellipse_3" data-name="Ellipse 3" transform="translate(269.785 172.482)" fill="#5c5c5c" stroke="#ebebeb" stroke-width="2">
        <circle cx="8.486" cy="8.486" r="8.486" stroke="none"/>
        <circle cx="8.486" cy="8.486" r="7.486" fill="none"/>
      </g>
      <g id="Ellipse_4" data-name="Ellipse 4" transform="translate(249.278 172.482)" fill="#5c5c5c" stroke="#ebebeb" stroke-width="2">
        <circle cx="8.486" cy="8.486" r="8.486" stroke="none"/>
        <circle cx="8.486" cy="8.486" r="7.486" fill="none"/>
      </g>
      <rect id="Rectangle_6" data-name="Rectangle 6" width="9.9" height="74.25" transform="translate(93 181.674)" fill="#005eeb"/>
      <rect id="Rectangle_7" data-name="Rectangle 7" width="9.9" height="74.25" transform="translate(312.921 181.674)" fill="#005eeb"/>
      <rect id="Rectangle_9" data-name="Rectangle 9" width="9.9" height="29.7" transform="translate(138.964 226.224)" fill="#ececec"/>
      <rect id="Rectangle_12" data-name="Rectangle 12" width="20.507" height="11.314" transform="translate(261.299 213.496)" fill="#c2c2c2"/>
      <rect id="Rectangle_13" data-name="Rectangle 13" width="20.507" height="11.314" transform="translate(134.014 213.496)" fill="#c2c2c2"/>
      <rect id="Rectangle_10" data-name="Rectangle 10" width="9.9" height="29.7" transform="translate(266.249 226.224)" fill="#ececec"/>
      <rect id="Rectangle_14" data-name="Rectangle 14" width="147.085" height="4.243" transform="translate(150.986 67.402) rotate(30)" fill="#1a1a1a"/>
      <rect id="Rectangle_16" data-name="Rectangle 16" width="174.664" height="4.243" transform="translate(124.114 140.376)" fill="#1a1a1a"/>
      <rect id="Rectangle_17" data-name="Rectangle 17" width="59.235" height="4.364" transform="matrix(0.545, -0.839, 0.839, 0.545, 150.703, 141.095)" fill="#1a1a1a"/>
      <g id="Rectangle_15" data-name="Rectangle 15" transform="translate(201.947 83.678) rotate(30)" fill="#ececec" stroke="#dfdfdf" stroke-width="1">
        <rect width="74.25" height="8.706" stroke="none"/>
        <rect x="0.5" y="0.5" width="73.25" height="7.706" fill="none"/>
      </g>
    </g>
    <g id="Group_7" data-name="Group 7" transform="translate(92 -74)">
      <rect id="Rectangle_24" data-name="Rectangle 24" width="19" height="730" transform="translate(684 147)" fill="#b8b8b8"/>
      <rect id="Rectangle_26" data-name="Rectangle 26" width="23" height="208" transform="translate(900 712.187) rotate(90)" fill="#b8b8b8"/>
      <rect id="Rectangle_27" data-name="Rectangle 27" width="23" height="208" transform="translate(892 512) rotate(90)" fill="#b8b8b8"/>
      <rect id="Rectangle_29" data-name="Rectangle 29" width="20" height="216" transform="translate(900 127) rotate(90)" fill="#b8b8b8"/>
      <rect id="Rectangle_28" data-name="Rectangle 28" width="23" height="208" transform="translate(900 311.813) rotate(90)" fill="#b8b8b8"/>
      <rect id="Rectangle_25" data-name="Rectangle 25" width="19" height="730" transform="translate(881 147)" fill="#b8b8b8"/>
      <g id="Group_4" data-name="Group 4" transform="translate(-5 19)">
        <rect id="Rectangle_30" data-name="Rectangle 30" width="141" height="129" transform="translate(727 564)" fill="#b9865e"/>
        <rect id="Rectangle_31" data-name="Rectangle 31" width="35" height="51" transform="translate(780 564)" fill="#d8d8d8"/>
      </g>
      <g id="Group_5" data-name="Group 5" transform="translate(-5 -381)">
        <rect id="Rectangle_30-2" data-name="Rectangle 30" width="141" height="129" transform="translate(727 564)" fill="#b9865e"/>
        <rect id="Rectangle_31-2" data-name="Rectangle 31" width="35" height="51" transform="translate(780 564)" fill="#d8d8d8"/>
      </g>
      <g id="Group_6" data-name="Group 6" transform="translate(-5 -181)">
        <rect id="Rectangle_30-3" data-name="Rectangle 30" width="141" height="129" transform="translate(727 564)" fill="#b9865e"/>
        <rect id="Rectangle_31-3" data-name="Rectangle 31" width="35" height="51" transform="translate(780 564)" fill="#d8d8d8"/>
      </g>
    </g>
    <g id="Group_8" data-name="Group 8" transform="translate(-20 -201.688)">
      <path id="Rectangle_32" data-name="Rectangle 32" d="M13,0H286a13,13,0,0,1,13,13V171a0,0,0,0,1,0,0H0a0,0,0,0,1,0,0V13A13,13,0,0,1,13,0Z" transform="translate(172 445.688)" fill="#4f4f4f"/>
      <rect id="Rectangle_36" data-name="Rectangle 36" width="275" height="141" transform="translate(184 456.688)" fill="#f1f1f1"/>
      <path id="Rectangle_33" data-name="Rectangle 33" d="M0,0H299a0,0,0,0,1,0,0V19a14,14,0,0,1-14,14H14A14,14,0,0,1,0,19V0A0,0,0,0,1,0,0Z" transform="translate(172 607.688)" fill="#ebebeb"/>
      <rect id="Rectangle_34" data-name="Rectangle 34" width="54" height="20" transform="translate(294 641.688)" fill="#ebebeb"/>
      <rect id="Rectangle_35" data-name="Rectangle 35" width="202" height="10" transform="translate(220 663.688)" fill="#ebebeb"/>
      <circle id="Ellipse_8" data-name="Ellipse 8" cx="7.5" cy="7.5" r="7.5" transform="translate(314 616.688)" fill="#464646"/>
    </g>
    <g id="Group_9" data-name="Group 9" transform="translate(-13.866 -165)">
      <ellipse id="Ellipse_9" data-name="Ellipse 9" cx="7.312" cy="35.521" rx="7.312" ry="35.521" transform="translate(78.623 537.53) rotate(-14)" fill="#558039"/>
      <ellipse id="Ellipse_10" data-name="Ellipse 10" cx="12" cy="47.5" rx="12" ry="47.5" transform="translate(97.173 508.927) rotate(-1)" fill="#558039"/>
      <ellipse id="Ellipse_11" data-name="Ellipse 11" cx="8.1" cy="37.197" rx="8.1" ry="37.197" transform="translate(125.294 542.486) rotate(16)" fill="#558039"/>
      <rect id="Rectangle_37" data-name="Rectangle 37" width="56" height="50" transform="translate(82 587)" fill="#595959"/>
    </g>
    <g id="Group_11" data-name="Group 11" transform="translate(-14.317 -162)">
      <path id="Path_1" data-name="Path 1" d="M7.178,0c6.182.428,13.5,42.723,16.337,94.468s.133,93.347-6.049,92.92S3.969,144.669,1.128,92.923,1-.424,7.178,0Z" transform="translate(275.768 724.244) rotate(14)" fill="#b9865e"/>
      <ellipse id="Ellipse_17" data-name="Ellipse 17" cx="11" cy="98.695" rx="11" ry="98.695" transform="translate(304.586 725)" fill="#b9865e"/>
      <path id="Path_2" data-name="Path 2" d="M17.981,0c6.2-.464,8.77,40.456,5.741,91.4s-10.51,92.615-16.71,93.079-8.77-40.456-5.741-91.4S11.781.468,17.981,0Z" transform="matrix(0.966, -0.259, 0.259, 0.966, 329.311, 730.86)" fill="#b9865e"/>
      <rect id="Rectangle_41" data-name="Rectangle 41" width="168" height="22" transform="translate(232 725)" fill="#b9865e"/>
    </g>
  </g>
</svg>
